<?xml version="1.0" encoding="UTF-8"?><svg id="text" xmlns="http://www.w3.org/2000/svg" width="326.88" height="289.44" viewBox="0 0 326.88 289.44"><defs><style>.cls-1{fill:#fff;stroke:#000;stroke-linejoin:round;stroke-width:.75px;}</style></defs><path class="cls-1" d="M225,19.89h-126.21v-6.4h126.21v6.4Z"/><path class="cls-1" d="M308.34,272.3V19.89h-54.85v-6.4h61.24v265.2H11.19V13.5h58.57v6.4H17.58v252.41h290.77Z"/><path d="M290.82,43.69v-5.67h-1.68v-.62c1.03-.03,1.58-.18,1.97-.96h.62v7.25h-.91Z"/><path d="M300.84,116.87c0,1.68-1.75,3.16-3.78,4.63h3.98v.85h-5.22v-.82c2.56-1.89,4.06-3.25,4.06-4.54,0-.76-.49-1.26-1.36-1.26-.78,0-1.53.43-1.56,1.63h-.94c-.03-1.44.97-2.39,2.52-2.39,1.34,0,2.3.67,2.3,1.9Z"/><path d="M243.11,262.35c0-1.04-.93-1.38-2.09-1.38h-.15v-.83h.12c1.27,0,1.93-.35,1.93-1.2,0-.77-.64-1.18-1.41-1.18-.97,0-1.5.58-1.58,1.41h-.94c.11-1.28,1.02-2.17,2.54-2.17,1.25,0,2.35.51,2.35,1.84,0,.75-.42,1.37-1.18,1.68,1.08.35,1.38,1.05,1.38,1.82,0,1.46-1.23,2.17-2.62,2.17-1.72,0-2.47-1.06-2.58-2.27h.94c.11.89.62,1.51,1.65,1.51.96,0,1.64-.49,1.64-1.4Z"/><path d="M166.11,238.54h-1.33v1.79h-.92v-1.79h-3.6v-.86l3.59-4.6h.93v4.6h1.33v.86ZM161.27,237.68h2.59v-3.35l-2.59,3.35Z"/><path d="M90.53,264.6c0-1.2-.84-1.72-1.63-1.72s-1.24.44-1.4.8l-.91-.05.47-3.9h4.16v.85h-3.42l-.25,2.06c.39-.37.96-.55,1.56-.55,1.27,0,2.38.9,2.38,2.5s-1.23,2.52-2.58,2.52c-1.67,0-2.45-1.06-2.58-2.23h.94c.15.92.63,1.47,1.64,1.47.87,0,1.62-.63,1.62-1.75Z"/><path d="M42.78,253.31c.33-.57.95-1.01,1.91-1.01,1.35,0,2.34,1.01,2.34,2.46,0,1.35-1,2.5-2.55,2.5-1.81,0-2.64-1.26-2.64-3.5,0-2.04.72-4.01,2.83-4.01,1.42,0,2.08.89,2.24,1.81h-.99c-.12-.65-.61-1.05-1.36-1.05-1.13,0-1.73,1.12-1.78,2.8ZM44.47,256.5c.92,0,1.59-.7,1.59-1.69s-.65-1.72-1.58-1.72-1.59.73-1.59,1.72.62,1.69,1.58,1.69Z"/><path d="M26.7,203.36h5.02v.85c-1.8,1.45-2.9,3.68-3.07,6.4h-1.1c.16-2.61,1.3-4.83,3.11-6.4h-3.96v-.85Z"/><path d="M98.78,132.42v-5.67h-1.68v-.62c1.03-.03,1.58-.18,1.97-.96h.62v7.25h-.91Z"/><path d="M106.68,130.63h-1.33v1.79h-.92v-1.79h-3.6v-.86l3.59-4.6h.93v4.6h1.33v.86ZM101.85,129.77h2.59v-3.35l-2.59,3.35Z"/><path d="M28.06,84.97c0,.6-.28,1.27-1,1.67.93.37,1.22,1.16,1.22,1.82,0,1.39-1.16,2.17-2.64,2.17s-2.65-.78-2.65-2.17c0-.65.28-1.45,1.23-1.82-.72-.4-1-1.07-1-1.67,0-1.07.94-1.85,2.42-1.85s2.42.78,2.42,1.85ZM23.96,88.45c0,.85.64,1.41,1.68,1.41s1.68-.56,1.68-1.41-.65-1.44-1.68-1.44-1.68.59-1.68,1.44ZM25.64,83.88c-.92,0-1.51.48-1.51,1.2s.6,1.27,1.51,1.27,1.5-.54,1.5-1.27-.59-1.2-1.5-1.2Z"/><path d="M48.74,57.81c-.33.57-.96,1.01-1.92,1.01-1.34,0-2.33-1-2.33-2.47,0-1.34,1-2.49,2.55-2.49,1.81,0,2.64,1.26,2.64,3.5,0,2.04-.75,4.01-2.83,4.01-1.42,0-2.08-.89-2.24-1.81h.99c.12.65.6,1.05,1.35,1.05,1.12,0,1.74-1.12,1.79-2.8ZM47.05,54.63c-.94,0-1.59.7-1.59,1.69s.65,1.71,1.58,1.71,1.58-.72,1.58-1.71-.61-1.69-1.57-1.69Z"/><path d="M24.31,31.99v-5.67h-1.68v-.62c1.03-.03,1.58-.18,1.97-.96h.62v7.25h-.91Z"/><path d="M29.49,32.12c-1.93,0-2.82-1.47-2.82-3.76s.89-3.75,2.82-3.75,2.82,1.46,2.82,3.75-.89,3.76-2.82,3.76ZM29.49,25.38c-1.15,0-1.85.98-1.85,2.99s.7,3,1.85,3,1.85-.97,1.85-3-.72-2.99-1.85-2.99Z"/><path d="M104.32,31.99v-5.67h-1.68v-.62c1.03-.03,1.58-.18,1.97-.96h.62v7.25h-.91Z"/><path d="M108.2,31.99v-5.67h-1.68v-.62c1.03-.03,1.58-.18,1.97-.96h.62v7.25h-.91Z"/><path d="M134.55,31.99v-5.67h-1.68v-.62c1.03-.03,1.58-.18,1.97-.96h.62v7.25h-.91Z"/><path d="M141.74,26.51c0,1.68-1.75,3.16-3.78,4.63h3.98v.85h-5.22v-.82c2.56-1.89,4.06-3.25,4.06-4.54,0-.76-.49-1.26-1.36-1.26-.78,0-1.53.43-1.56,1.63h-.94c-.03-1.44.97-2.39,2.52-2.39,1.34,0,2.3.67,2.3,1.9Z"/><path d="M199.49,31.99v-5.67h-1.68v-.62c1.03-.03,1.58-.18,1.97-.96h.62v7.25h-.91Z"/><path d="M205.83,29.96c0-1.04-.93-1.38-2.09-1.38h-.15v-.83h.12c1.27,0,1.93-.35,1.93-1.2,0-.77-.64-1.18-1.41-1.18-.97,0-1.5.58-1.58,1.41h-.94c.11-1.28,1.02-2.17,2.54-2.17,1.25,0,2.35.51,2.35,1.84,0,.75-.42,1.37-1.18,1.68,1.08.35,1.38,1.05,1.38,1.82,0,1.46-1.23,2.17-2.62,2.17-1.72,0-2.47-1.06-2.58-2.27h.94c.11.89.62,1.51,1.65,1.51.96,0,1.64-.49,1.64-1.4Z"/></svg>